<mxfile host="Electron" agent="Mozilla/5.0 (Windows NT 10.0; Win64; x64) AppleWebKit/537.36 (KHTML, like Gecko) draw.io/26.0.9 Chrome/128.0.6613.186 Electron/32.2.5 Safari/537.36" version="26.0.9">
  <diagram name="Страница — 1" id="RyqSW68B_dAQg0w7gkDK">
    <mxGraphModel dx="2901" dy="1205" grid="1" gridSize="10" guides="1" tooltips="1" connect="1" arrows="1" fold="1" page="1" pageScale="1" pageWidth="827" pageHeight="1169" math="0" shadow="0">
      <root>
        <mxCell id="0" />
        <mxCell id="1" parent="0" />
        <mxCell id="juNFrlzL2-Wdl-w0CFKb-1" value="&lt;h1 style=&quot;margin-top: 0px;&quot;&gt;Stringer&lt;/h1&gt;&lt;p&gt;&lt;font style=&quot;color: rgb(102, 102, 255);&quot;&gt;type&lt;/font&gt; Stringer &lt;font style=&quot;color: rgb(102, 102, 255);&quot;&gt;interface&lt;/font&gt; {&lt;/p&gt;&lt;p&gt;&lt;span style=&quot;white-space: pre;&quot;&gt;&#x9;&lt;/span&gt;String() &lt;span style=&quot;white-space: pre;&quot;&gt;&#x9;&lt;/span&gt;&lt;span style=&quot;white-space: pre;&quot;&gt;&#x9;&lt;/span&gt;&lt;font style=&quot;color: rgb(102, 102, 255);&quot;&gt;string&lt;/font&gt;&lt;br&gt;&lt;/p&gt;&lt;p&gt;}&lt;/p&gt;" style="text;html=1;whiteSpace=wrap;overflow=hidden;rounded=0;" vertex="1" parent="1">
          <mxGeometry x="-790" y="350" width="150" height="120" as="geometry" />
        </mxCell>
        <mxCell id="juNFrlzL2-Wdl-w0CFKb-2" value="&lt;h1 style=&quot;margin-top: 0px;&quot;&gt;Shape&lt;/h1&gt;&lt;p&gt;&lt;font style=&quot;color: rgb(102, 102, 255);&quot;&gt;type&lt;/font&gt; Shape&amp;nbsp;&lt;font style=&quot;color: rgb(102, 102, 255);&quot;&gt;interface&lt;/font&gt; {&lt;/p&gt;&lt;p&gt;&lt;span style=&quot;white-space: pre;&quot;&gt;&#x9;&lt;/span&gt;Area() &lt;span style=&quot;white-space: pre;&quot;&gt;&#x9;&lt;/span&gt;&lt;span style=&quot;white-space: pre;&quot;&gt;&#x9;&lt;/span&gt;&lt;font color=&quot;#6666ff&quot;&gt;float64&lt;/font&gt;&lt;/p&gt;&lt;p&gt;&lt;span style=&quot;background-color: transparent; color: light-dark(rgb(0, 0, 0), rgb(255, 255, 255));&quot;&gt;&lt;span style=&quot;white-space: pre;&quot;&gt;&#x9;&lt;/span&gt;Perimeter&lt;/span&gt;&lt;span style=&quot;background-color: transparent; color: light-dark(rgb(0, 0, 0), rgb(255, 255, 255));&quot;&gt;()&lt;/span&gt;&lt;span style=&quot;background-color: transparent; color: light-dark(rgb(0, 0, 0), rgb(255, 255, 255));&quot;&gt;&amp;nbsp;&lt;span style=&quot;white-space: pre;&quot;&gt;&#x9;&lt;/span&gt;&lt;/span&gt;&lt;font style=&quot;background-color: transparent;&quot; color=&quot;#6666ff&quot;&gt;float64&lt;/font&gt;&lt;/p&gt;&lt;p&gt;}&lt;/p&gt;" style="text;html=1;whiteSpace=wrap;overflow=hidden;rounded=0;" vertex="1" parent="1">
          <mxGeometry x="-790" y="500" width="150" height="160" as="geometry" />
        </mxCell>
        <mxCell id="juNFrlzL2-Wdl-w0CFKb-3" value="&lt;h1 style=&quot;margin-top: 0px;&quot;&gt;&lt;span style=&quot;white-space-collapse: preserve;&quot; data-src-align=&quot;0:7&quot; class=&quot;EzKURWReUAB5oZgtQNkl&quot;&gt;Square&lt;/span&gt;&lt;br&gt;&lt;/h1&gt;&lt;p&gt;&lt;font style=&quot;color: rgb(102, 102, 255);&quot;&gt;type&lt;/font&gt; Square &lt;font style=&quot;color: rgb(102, 102, 255);&quot;&gt;struct&lt;/font&gt; {&lt;/p&gt;&lt;p&gt;&lt;span style=&quot;white-space: pre;&quot;&gt;&#x9;&lt;/span&gt;name &lt;span style=&quot;white-space: pre;&quot;&gt;&#x9;&lt;/span&gt;&lt;font style=&quot;color: rgb(102, 102, 255);&quot;&gt;string&lt;/font&gt;&lt;br&gt;&lt;/p&gt;&lt;p&gt;&lt;font style=&quot;color: rgb(102, 102, 255);&quot;&gt;&lt;span style=&quot;color: light-dark(rgb(102, 102, 255), rgb(102, 102, 255)); white-space: pre;&quot;&gt;&#x9;&lt;/span&gt;&lt;font style=&quot;color: rgb(0, 0, 0);&quot;&gt;a&lt;/font&gt;&lt;/font&gt;&lt;font style=&quot;color: rgb(102, 102, 255);&quot;&gt; &lt;span style=&quot;white-space: pre;&quot;&gt;&#x9;&lt;/span&gt;&lt;span style=&quot;white-space: pre;&quot;&gt;&#x9;&lt;/span&gt;float64&lt;br&gt;&lt;/font&gt;&lt;/p&gt;&lt;p&gt;}&lt;/p&gt;&lt;p&gt;&lt;font style=&quot;color: rgb(102, 102, 255);&quot;&gt;func&lt;/font&gt; (s Square) String() &lt;font style=&quot;color: rgb(102, 102, 255);&quot;&gt;string&lt;/font&gt; {&lt;/p&gt;&lt;p&gt;&lt;span style=&quot;white-space: pre;&quot;&gt;&#x9;&lt;/span&gt;return s.name&lt;br&gt;&lt;/p&gt;&lt;p&gt;}&lt;/p&gt;&lt;p&gt;&lt;font style=&quot;color: rgb(102, 102, 255);&quot;&gt;func&lt;/font&gt;&amp;nbsp;(s Square) Area() &lt;font color=&quot;#6666ff&quot;&gt;float64&lt;/font&gt;&amp;nbsp;{&lt;/p&gt;&lt;p&gt;&lt;span style=&quot;white-space: pre;&quot;&gt;&#x9;&lt;/span&gt;return s.a*s.a&lt;br&gt;&lt;/p&gt;&lt;p&gt;}&lt;/p&gt;&lt;p&gt;&lt;font style=&quot;color: rgb(102, 102, 255);&quot;&gt;func&lt;/font&gt;&amp;nbsp;(s Square) Perimeter()&amp;nbsp;&lt;span style=&quot;color: rgb(102, 102, 255);&quot;&gt;float64&lt;/span&gt;&amp;nbsp;{&lt;/p&gt;&lt;p&gt;&lt;span style=&quot;white-space: pre;&quot;&gt;&#x9;&lt;/span&gt;return 4*s.a&lt;br&gt;&lt;/p&gt;&lt;p&gt;}&lt;/p&gt;" style="text;html=1;whiteSpace=wrap;overflow=hidden;rounded=0;" vertex="1" parent="1">
          <mxGeometry x="-330" y="180" width="220" height="400" as="geometry" />
        </mxCell>
        <mxCell id="juNFrlzL2-Wdl-w0CFKb-4" value="&lt;h1 style=&quot;margin-top: 0px;&quot;&gt;&lt;span style=&quot;white-space-collapse: preserve;&quot; data-src-align=&quot;0:4&quot; class=&quot;EzKURWReUAB5oZgtQNkl&quot;&gt;Circle&lt;/span&gt;&lt;br&gt;&lt;/h1&gt;&lt;p&gt;&lt;font style=&quot;color: rgb(102, 102, 255);&quot;&gt;type&lt;/font&gt;&amp;nbsp;&lt;span style=&quot;white-space-collapse: preserve;&quot; data-src-align=&quot;0:4&quot; class=&quot;EzKURWReUAB5oZgtQNkl&quot;&gt;Circle&lt;/span&gt;&amp;nbsp;&lt;font style=&quot;color: rgb(102, 102, 255);&quot;&gt;struct&lt;/font&gt; {&lt;/p&gt;&lt;p&gt;&lt;span style=&quot;white-space: pre;&quot;&gt;&#x9;&lt;/span&gt;name &lt;span style=&quot;white-space: pre;&quot;&gt;&#x9;&lt;/span&gt;&lt;font style=&quot;color: rgb(102, 102, 255);&quot;&gt;string&lt;/font&gt;&lt;br&gt;&lt;/p&gt;&lt;p&gt;&lt;font style=&quot;color: rgb(102, 102, 255);&quot;&gt;&lt;span style=&quot;color: light-dark(rgb(102, 102, 255), rgb(102, 102, 255)); white-space: pre;&quot;&gt;&#x9;&lt;/span&gt;&lt;font style=&quot;color: rgb(0, 0, 0);&quot;&gt;r&lt;/font&gt;&lt;/font&gt;&lt;font style=&quot;color: rgb(102, 102, 255);&quot;&gt; &lt;span style=&quot;white-space: pre;&quot;&gt;&#x9;&lt;/span&gt;&lt;span style=&quot;white-space: pre;&quot;&gt;&#x9;&lt;/span&gt;float64&lt;br&gt;&lt;/font&gt;&lt;/p&gt;&lt;p&gt;&lt;font style=&quot;color: rgb(102, 102, 255);&quot;&gt;&lt;span style=&quot;color: light-dark(rgb(102, 102, 255), rgb(102, 102, 255)); white-space: pre;&quot;&gt;&#x9;&lt;/span&gt;&lt;font style=&quot;color: rgb(0, 0, 0);&quot;&gt;pi&lt;/font&gt;&lt;/font&gt;&lt;font style=&quot;color: rgb(102, 102, 255);&quot;&gt;&amp;nbsp;&lt;span style=&quot;white-space: pre;&quot;&gt;&#x9;&lt;/span&gt;&lt;span style=&quot;white-space: pre;&quot;&gt;&#x9;&lt;/span&gt;float64&lt;br&gt;&lt;/font&gt;&lt;/p&gt;&lt;p&gt;}&lt;/p&gt;&lt;p&gt;&lt;font style=&quot;color: rgb(102, 102, 255);&quot;&gt;func&lt;/font&gt; (с&amp;nbsp;&lt;span style=&quot;white-space-collapse: preserve;&quot; data-src-align=&quot;0:4&quot; class=&quot;EzKURWReUAB5oZgtQNkl&quot;&gt;Circle&lt;/span&gt;) String() &lt;font style=&quot;color: rgb(102, 102, 255);&quot;&gt;string&lt;/font&gt; {&lt;/p&gt;&lt;p&gt;&lt;span style=&quot;white-space: pre;&quot;&gt;&#x9;&lt;/span&gt;return c.name&lt;br&gt;&lt;/p&gt;&lt;p&gt;}&lt;/p&gt;&lt;p&gt;&lt;font style=&quot;color: rgb(102, 102, 255);&quot;&gt;func&lt;/font&gt;&amp;nbsp;(с&amp;nbsp;&lt;span style=&quot;white-space-collapse: preserve;&quot; data-src-align=&quot;0:4&quot; class=&quot;EzKURWReUAB5oZgtQNkl&quot;&gt;Circle&lt;/span&gt;) SetR(newR float64)&amp;nbsp;{&lt;/p&gt;&lt;p&gt;&lt;span style=&quot;white-space: pre;&quot;&gt;&#x9;&lt;/span&gt;c.r = newR&lt;br&gt;&lt;/p&gt;&lt;p&gt;}&lt;/p&gt;&lt;p&gt;&lt;font style=&quot;color: rgb(102, 102, 255);&quot;&gt;func&lt;/font&gt;&amp;nbsp;(с&amp;nbsp;&lt;span style=&quot;white-space-collapse: preserve;&quot; data-src-align=&quot;0:4&quot; class=&quot;EzKURWReUAB5oZgtQNkl&quot;&gt;Circle&lt;/span&gt;) Area() &lt;font color=&quot;#6666ff&quot;&gt;float64&lt;/font&gt;&amp;nbsp;{&lt;/p&gt;&lt;p&gt;&lt;span style=&quot;white-space: pre;&quot;&gt;&#x9;&lt;/span&gt;return c.pi*c.r*c.r&lt;br&gt;&lt;/p&gt;&lt;p&gt;}&lt;/p&gt;&lt;p&gt;&lt;font style=&quot;color: rgb(102, 102, 255);&quot;&gt;func&lt;/font&gt;&amp;nbsp;(с&amp;nbsp;&lt;span style=&quot;white-space-collapse: preserve;&quot; data-src-align=&quot;0:4&quot; class=&quot;EzKURWReUAB5oZgtQNkl&quot;&gt;Circle&lt;/span&gt;) Perimeter()&amp;nbsp;&lt;span style=&quot;color: rgb(102, 102, 255);&quot;&gt;float64&lt;/span&gt;&amp;nbsp;{&lt;/p&gt;&lt;p&gt;&lt;span style=&quot;white-space: pre;&quot;&gt;&#x9;&lt;/span&gt;return 2*c.pi*c.r&lt;br&gt;&lt;/p&gt;&lt;p&gt;}&lt;/p&gt;" style="text;html=1;whiteSpace=wrap;overflow=hidden;rounded=0;" vertex="1" parent="1">
          <mxGeometry x="-330" y="600" width="220" height="400" as="geometry" />
        </mxCell>
        <mxCell id="juNFrlzL2-Wdl-w0CFKb-5" value="" style="endArrow=classic;html=1;rounded=0;" edge="1" parent="1">
          <mxGeometry width="50" height="50" relative="1" as="geometry">
            <mxPoint x="-620" y="400" as="sourcePoint" />
            <mxPoint x="-370" y="330" as="targetPoint" />
          </mxGeometry>
        </mxCell>
        <mxCell id="juNFrlzL2-Wdl-w0CFKb-6" value="" style="endArrow=classic;html=1;rounded=0;" edge="1" parent="1">
          <mxGeometry width="50" height="50" relative="1" as="geometry">
            <mxPoint x="-630" y="440" as="sourcePoint" />
            <mxPoint x="-360" y="620" as="targetPoint" />
          </mxGeometry>
        </mxCell>
        <mxCell id="juNFrlzL2-Wdl-w0CFKb-7" value="" style="endArrow=classic;html=1;rounded=0;" edge="1" parent="1">
          <mxGeometry width="50" height="50" relative="1" as="geometry">
            <mxPoint x="-370" y="300" as="sourcePoint" />
            <mxPoint x="-620" y="370" as="targetPoint" />
          </mxGeometry>
        </mxCell>
        <mxCell id="juNFrlzL2-Wdl-w0CFKb-8" value="" style="endArrow=classic;html=1;rounded=0;" edge="1" parent="1">
          <mxGeometry width="50" height="50" relative="1" as="geometry">
            <mxPoint x="-350" y="440" as="sourcePoint" />
            <mxPoint x="-630" y="520" as="targetPoint" />
          </mxGeometry>
        </mxCell>
        <mxCell id="juNFrlzL2-Wdl-w0CFKb-9" value="" style="endArrow=classic;html=1;rounded=0;exitX=1;exitY=0.75;exitDx=0;exitDy=0;" edge="1" parent="1" source="juNFrlzL2-Wdl-w0CFKb-2">
          <mxGeometry width="50" height="50" relative="1" as="geometry">
            <mxPoint x="-640" y="585" as="sourcePoint" />
            <mxPoint x="-370" y="765" as="targetPoint" />
          </mxGeometry>
        </mxCell>
        <mxCell id="juNFrlzL2-Wdl-w0CFKb-10" value="" style="endArrow=classic;html=1;rounded=0;" edge="1" parent="1">
          <mxGeometry width="50" height="50" relative="1" as="geometry">
            <mxPoint x="-630" y="560" as="sourcePoint" />
            <mxPoint x="-360" y="480" as="targetPoint" />
          </mxGeometry>
        </mxCell>
        <mxCell id="juNFrlzL2-Wdl-w0CFKb-11" value="" style="endArrow=classic;html=1;rounded=0;" edge="1" parent="1">
          <mxGeometry width="50" height="50" relative="1" as="geometry">
            <mxPoint x="-380" y="720" as="sourcePoint" />
            <mxPoint x="-630" y="590" as="targetPoint" />
          </mxGeometry>
        </mxCell>
        <mxCell id="juNFrlzL2-Wdl-w0CFKb-12" value="" style="endArrow=classic;html=1;rounded=0;" edge="1" parent="1">
          <mxGeometry width="50" height="50" relative="1" as="geometry">
            <mxPoint x="-360" y="660" as="sourcePoint" />
            <mxPoint x="-630" y="480" as="targetPoint" />
          </mxGeometry>
        </mxCell>
      </root>
    </mxGraphModel>
  </diagram>
</mxfile>
